<svg width="138" height="33" viewBox="0 0 138 33" fill="none" xmlns="http://www.w3.org/2000/svg">
<path d="M120.059 21.886C120.417 26.3526 123.543 28.5412 126.58 28.5412C129.35 28.5412 131.538 27.4245 132.476 25.1913H137.702C136.585 29.0325 133.012 32.963 126.804 32.963C119.077 32.963 114.655 27.0672 114.655 20.1888C114.655 12.953 119.613 7.81644 126.446 7.81644C133.816 7.81644 138.417 13.8016 137.97 21.886H120.059ZM120.059 18.0001H132.566C132.432 14.2483 129.573 11.9703 126.446 11.9703C123.945 11.9703 120.506 13.4443 120.059 18.0001Z" fill="white"/>
<path d="M110.281 32.3824H104.966V0H110.281V32.3824Z" fill="white"/>
<path d="M100.658 16.5709H95.4764C95.0297 14.0249 92.7965 12.2383 89.8932 12.2383C86.588 12.2383 83.5954 14.6949 83.5954 20.3674C83.5954 26.0846 86.6326 28.5412 89.7592 28.5412C92.3498 28.5412 94.9851 27.3799 95.6551 24.164H100.836C99.7643 29.7918 94.8064 32.963 89.6699 32.963C82.7021 32.963 78.1016 27.5585 78.1016 20.4121C78.1016 13.2656 82.7468 7.81644 89.8932 7.81644C95.1191 7.81644 99.7643 11.211 100.658 16.5709Z" fill="white"/>
<path d="M73.772 0V5.35985H68.4568V0H73.772ZM73.772 8.35242V32.3824H68.4568V8.35242H73.772Z" fill="white"/>
<path d="M57.1409 0H62.4561V32.3824H57.1409V29.2112C55.7116 31.5784 53.2103 32.963 49.9944 32.963C44.3219 32.963 39.5427 28.0945 39.5427 20.3674C39.5427 12.685 44.3219 7.81644 49.9944 7.81644C53.2103 7.81644 55.7116 9.20107 57.1409 11.5683V0ZM51.1557 12.149C47.6272 12.149 45.0812 15.3202 45.0812 20.3674C45.0812 25.4593 47.6272 28.6305 51.1557 28.6305C54.6396 28.6305 57.3642 25.9059 57.3642 20.3674C57.3642 14.8289 54.6396 12.149 51.1557 12.149Z" fill="white"/>
<path d="M14.3364 25.7719C14.3364 19.7868 21.7062 18.2681 30.5053 17.3748V16.9282C30.5053 12.819 28.138 11.5683 25.5028 11.5683C22.8229 11.5683 20.8129 12.9976 20.6789 15.9009H15.4531C15.8104 10.9877 19.8749 7.63778 25.6814 7.63778C31.4433 7.63778 35.9545 10.273 35.8205 17.9555C35.8205 19.1614 35.7311 21.9754 35.7311 24.164C35.7311 27.2012 35.9991 30.3725 36.4458 32.3824H31.5773C31.3986 31.3551 31.2199 30.7744 31.1306 29.1218C29.612 31.7124 26.7534 32.963 23.2248 32.963C17.999 32.963 14.3364 30.1491 14.3364 25.7719ZM30.6393 21.0821C23.0462 21.7967 19.9643 22.8687 19.9643 25.6379C19.9643 27.7372 21.7062 28.9878 24.3861 28.9878C28.3167 28.9878 30.6393 26.9779 30.6393 22.9133V21.0821Z" fill="white"/>
<path d="M5.34148 8.22249H13.1966V13.6562H5.34148V32.3824H0V13.6562H5.34148V8.22249Z" fill="white"/>
</svg>
