<svg width="657" height="152" viewBox="0 0 657 152" fill="none" xmlns="http://www.w3.org/2000/svg">
<path d="M136.273 40.7227C165.277 40.7227 180.902 56.0547 180.902 80.4688V149.707H156.195V129.883H155.219C151.801 141.699 140.18 151.66 122.504 151.66C101.898 151.66 88.6172 139.551 88.6172 121.191C88.6172 101.074 102.289 90.625 127.289 86.9141L145.844 84.2773C152.582 83.2031 155.707 81.1523 155.707 75.6836C155.707 65.332 148.578 59.4727 136.273 59.4727C123.188 59.4727 116.254 66.6016 114.203 76.4648L89.9844 72.8516C93.6953 54.9805 108.441 40.7227 136.273 40.7227ZM300.047 149.707H274.852V130.078H273.875C267.234 143.945 256.98 151.66 242.43 151.66C216.551 151.66 199.168 129.883 199.168 95.9961C199.168 62.207 216.551 40.7227 242.332 40.7227C256.98 40.7227 268.504 49.0234 273.973 61.8164H274.852V6.34766H300.047V149.707ZM436.871 40.7227C462.652 40.7227 479.254 54.6875 482.379 74.9023L458.16 80.0781C455.621 68.2617 448.688 61.1328 436.871 61.1328C421.637 61.1328 411.969 73.9258 411.969 96.1914C411.969 117.578 421.734 131.25 436.969 131.25C447.906 131.25 455.719 125.293 457.965 113.379H482.965C480.133 137.305 464.215 151.66 436.969 151.66C405.719 151.66 385.602 129.883 385.602 96.1914C385.602 62.4023 405.719 40.7227 436.871 40.7227ZM609.535 40.7227C637.562 40.7227 659.535 59.082 656.605 101.953H584.73C586.195 120.801 596.156 131.934 609.633 131.934C621.254 131.934 628.578 126.27 631.41 116.211H656.898C654.164 134.375 636.879 151.66 609.633 151.66C578.676 151.66 558.363 130.078 558.363 96.3867C558.363 63.0859 578.969 40.7227 609.535 40.7227ZM74.8242 65.707H42.0977V129.707H60.1562V149.629H42.0977V149.707H17V149.629H0V129.707H17V42.6758H74.8242V65.707ZM360.793 129.785H378.469V149.707H318.312V129.785H335.695V62.5977H319.582V42.6758H360.793V129.785ZM534.434 129.785H552.109V149.707H491.953V129.785H509.336V26.2695H493.223V6.34766H534.434V129.785ZM132.465 103.711C120.453 105.957 115.18 111.035 115.18 118.75C115.18 127.344 121.527 132.422 131.195 132.422C147.602 132.422 155.707 120.508 155.707 102.93V99.4141L132.465 103.711ZM250.242 61.5234C235.301 61.5234 225.73 75 225.73 95.9961C225.73 116.895 235.301 130.566 250.242 130.566C265.281 130.566 274.754 116.992 274.754 95.9961C274.754 75 265.281 61.5234 250.242 61.5234ZM609.633 59.5703C597.621 59.5703 588.148 66.5039 585.316 84.7656H631.41C630.824 69.1406 622.816 59.5703 609.633 59.5703ZM347.609 0C355.422 0 361.672 6.15234 361.672 13.8672C361.672 21.582 355.422 27.7344 347.609 27.7344C339.797 27.7344 333.449 21.582 333.449 13.8672C333.449 6.15234 339.797 0 347.609 0Z" fill="white"/>
</svg>
