<svg width="16" height="16" viewBox="0 0 16 16" fill="none" xmlns="http://www.w3.org/2000/svg">
<path d="M10 5.5H9V4.5L10 4.5V5.5Z" fill="#7070FF"/>
<path d="M11 4.5L10 4.5V3.5L11 3.5V4.5Z" fill="#7070FF"/>
<path d="M12 3.5L11 3.5L11 2.5L12 2.5L12 3.5Z" fill="#7070FF"/>
<path d="M13 3.5L12 3.5L12 2.5L13 2.5L13 3.5Z" fill="#7070FF"/>
<path d="M14 4.5L13 4.5V3.5L14 3.5V4.5Z" fill="#7070FF"/>
<path d="M13 5.5H12V4.5H13V5.5Z" fill="#7070FF"/>
<path d="M5 6.5L5 5.5L4 5.5L4 6.5L5 6.5Z" fill="#7070FF"/>
<path d="M4 7.5L4 6.5L3 6.5L3 7.5L4 7.5Z" fill="#7070FF"/>
<path d="M3 8.5L3 7.5L2 7.5L2 8.5H3Z" fill="#7070FF"/>
<path d="M3 9.5L3 8.5H2L2 9.5H3Z" fill="#7070FF"/>
<path d="M4 10.5L4 9.5H3L3 10.5L4 10.5Z" fill="#7070FF"/>
<path d="M10 6.5H9L9 5.5H10L10 6.5Z" fill="#7070FF"/>
<path d="M9 7.5H8V6.5L9 6.5L9 7.5Z" fill="#7070FF"/>
<path d="M8 7.5H7V6.5L8 6.5V7.5Z" fill="#7070FF"/>
<path d="M11 7.5L10 7.5L10 6.5L11 6.5V7.5Z" fill="#7070FF"/>
<path d="M12 7.5L10 7.5L10 6.5L12 6.5V7.5Z" fill="#7070FF"/>
<path d="M13 6.5H12V5.5H13V6.5Z" fill="#7070FF"/>
<path d="M5 9.5L5 8.5H4L4 9.5L5 9.5Z" fill="#7070FF"/>
<path d="M9 7.5H8V10.5H9V7.5Z" fill="#7070FF"/>
<path d="M8 10.5L7 10.5L7 13.5H8L8 10.5Z" fill="#7070FF"/>
<path d="M6 6.5L6 5.5H5L5 6.5H6Z" fill="#7070FF"/>
<path d="M7 7.5V6.5L6 6.5L6 7.5H7Z" fill="#7070FF"/>
<path d="M7 8.5L7 6.5L6 6.5L6 8.5H7Z" fill="#7070FF"/>
<path d="M6 9.5V8.5H5L5 9.5H6Z" fill="#7070FF"/>
<path d="M4 6.5L6 6.5L6 8.5H4L4 6.5Z" fill="#7070FF"/>
<path d="M3 7.5L4 7.5L4 9.5H3L3 7.5Z" fill="#7070FF"/>
<path d="M11 3.5L13 3.5V4.5L11 4.5V3.5Z" fill="#7070FF"/>
<path d="M10 4.5L12 4.5V6.5L10 6.5L10 4.5Z" fill="#7070FF"/>
</svg>
